<svg width="81" height="81" viewBox="0 0 81 81" fill="none" xmlns="http://www.w3.org/2000/svg">
<path d="M40.4999 1.62012C32.8102 1.62012 25.2931 3.90039 18.8993 8.17258C12.5055 12.4448 7.52219 18.517 4.57945 25.6214C1.63672 32.7258 0.866765 40.5432 2.36696 48.0852C3.86715 55.6272 7.57011 62.555 13.0076 67.9924C18.445 73.4299 25.3728 77.1328 32.9148 78.633C40.4568 80.1332 48.2742 79.3633 55.3786 76.4205C62.483 73.4778 68.5552 68.4945 72.8274 62.1007C77.0996 55.7069 79.3799 48.1898 79.3799 40.5001C79.3799 30.1885 75.2836 20.2992 67.9922 13.0078C60.7008 5.71639 50.8115 1.62012 40.4999 1.62012ZM40.4999 76.1401C33.451 76.1401 26.5603 74.0499 20.6994 70.1337C14.8384 66.2175 10.2703 60.6513 7.57282 54.139C4.87532 47.6266 4.16953 40.4606 5.5447 33.5471C6.91988 26.6336 10.3143 20.2832 15.2986 15.2988C20.2829 10.3145 26.6334 6.92011 33.5469 5.54493C40.4604 4.16975 47.6264 4.87554 54.1387 7.57305C60.6511 10.2706 66.2173 14.8386 70.1335 20.6996C74.0496 26.5606 76.1399 33.4512 76.1399 40.5001C76.1399 49.9524 72.385 59.0176 65.7012 65.7014C59.0174 72.3852 49.9522 76.1401 40.4999 76.1401Z" fill="#94A1A7"/>
<path d="M40.4999 41.1641C34.9145 41.1641 29.5578 43.3829 25.6083 47.3324C21.6588 51.2819 19.4399 56.6386 19.4399 62.2241C19.4399 62.6537 19.6106 63.0658 19.9144 63.3696C20.2182 63.6734 20.6303 63.8441 21.0599 63.8441C21.4896 63.8441 21.9016 63.6734 22.2055 63.3696C22.5093 63.0658 22.6799 62.6537 22.6799 62.2241C22.6799 57.4979 24.5574 52.9653 27.8993 49.6234C31.2412 46.2815 35.7738 44.4041 40.4999 44.4041C45.2261 44.4041 49.7587 46.2815 53.1006 49.6234C56.4425 52.9653 58.3199 57.4979 58.3199 62.2241C58.3199 62.6537 58.4906 63.0658 58.7944 63.3696C59.0982 63.6734 59.5103 63.8441 59.9399 63.8441C60.3696 63.8441 60.7816 63.6734 61.0855 63.3696C61.3893 63.0658 61.5599 62.6537 61.5599 62.2241C61.5599 59.4584 61.0152 56.7199 59.9568 54.1647C58.8985 51.6096 57.3472 49.288 55.3916 47.3324C53.436 45.3768 51.1144 43.8255 48.5593 42.7672C46.0041 41.7088 43.2656 41.1641 40.4999 41.1641Z" fill="#94A1A7"/>
<path d="M40.5001 38.4101C41.9908 38.3703 43.4591 38.0368 44.8208 37.4287C46.1825 36.8206 47.4109 35.95 48.4356 34.8665C49.4604 33.7831 50.2614 32.5082 50.7927 31.1147C51.3241 29.7213 51.5754 28.2368 51.5323 26.7461C51.5776 25.2541 51.3279 23.7678 50.7975 22.3725C50.2671 20.9773 49.4665 19.7004 48.4415 18.6152C47.4165 17.5301 46.1874 16.6579 44.8246 16.0489C43.4619 15.4398 41.9922 15.1057 40.5001 15.0659C39.0079 15.1057 37.5383 15.4398 36.1755 16.0489C34.8127 16.6579 33.5836 17.5301 32.5586 18.6152C31.5337 19.7004 30.733 20.9773 30.2026 22.3725C29.6723 23.7678 29.4226 25.2541 29.4679 26.7461C29.4247 28.2368 29.676 29.7213 30.2074 31.1147C30.7388 32.5082 31.5398 33.7831 32.5645 34.8665C33.5893 35.95 34.8177 36.8206 36.1793 37.4287C37.541 38.0368 39.0093 38.3703 40.5001 38.4101ZM40.5001 18.3059C41.5669 18.3455 42.6153 18.5956 43.5851 19.0418C44.5549 19.488 45.427 20.1214 46.1511 20.9058C46.8753 21.6902 47.4372 22.6099 47.8047 23.6122C48.1721 24.6145 48.3378 25.6796 48.2923 26.7461C48.3357 27.8113 48.1683 28.8747 47.7999 29.8751C47.4314 30.8755 46.8691 31.7933 46.1452 32.576C45.4213 33.3586 44.5499 33.9906 43.5812 34.4358C42.6125 34.8809 41.5654 35.1305 40.5001 35.1701C39.4347 35.1305 38.3876 34.8809 37.4189 34.4358C36.4502 33.9906 35.5789 33.3586 34.855 32.576C34.131 31.7933 33.5687 30.8755 33.2003 29.8751C32.8318 28.8747 32.6645 27.8113 32.7079 26.7461C32.6623 25.6796 32.828 24.6145 33.1955 23.6122C33.5629 22.6099 34.1249 21.6902 34.849 20.9058C35.5732 20.1214 36.4452 19.488 37.415 19.0418C38.3848 18.5956 39.4333 18.3455 40.5001 18.3059Z" fill="#94A1A7"/>
</svg>
